<svg width="852" height="1148" viewBox="0 0 852 1148" fill="none" xmlns="http://www.w3.org/2000/svg">
<g clip-path="url(#clip0_238_706)">
<rect width="852" height="1148" fill="url(#paint0_linear_238_706)"/>
<path d="M98.924 385.796L4.51937 375H0V430.237H29.878L131.313 438.522L389.168 449.57C423.984 452.08 555.33 449.168 667.611 438.522C713.558 434.166 516.212 444.297 430.846 444.297L361.801 438.522C349.247 438.69 324.139 437.267 324.139 430.237C324.139 423.207 291.667 422.286 275.43 422.704L184.541 408.644L110.725 399.857L98.924 385.796Z" fill="white"/>
<path d="M449.928 511.083L645.516 506.062L676.65 494.01L698.745 482.712L723.35 474.426V504.148V506.062V526.399H698.745L671.126 530.416L428.838 537.446L410.76 542.468L372.848 544.978L318.616 550H202.116H131.313L238.773 544.978L303.551 542.468L410.76 526.399L449.928 511.083Z" fill="white"/>
<path d="M105.911 596.092L0.0669904 584H-5V645.865H28.4984L142.224 655.145L431.324 667.518C470.359 670.33 617.62 667.068 743.507 655.145C795.021 650.266 573.763 661.613 478.053 661.613L400.641 655.145C386.566 655.332 358.416 653.739 358.416 645.865C358.416 637.991 322.009 636.96 303.805 637.429L201.902 621.681L119.141 611.839L105.911 596.092Z" fill="white"/>
<path d="M499.447 736.413L718.735 730.789L753.641 717.291L778.413 704.637L806 695.357V728.646V730.789V753.567H778.413L743.507 794.5L484 820.5H455.533L414 794.5H335.333H105.911L6 785.5L262.706 774.376L335.333 771.564L455.533 753.567L499.447 736.413Z" fill="white"/>
</g>
<defs>
<linearGradient id="paint0_linear_238_706" x1="289.325" y1="-424.895" x2="368.81" y2="1147.34" gradientUnits="userSpaceOnUse">
<stop offset="0.241959" stop-color="white"/>
<stop offset="0.741841" stop-color="#DAF3FF"/>
</linearGradient>
<clipPath id="clip0_238_706">
<rect width="852" height="1148" fill="white"/>
</clipPath>
</defs>
</svg>
