<svg width="2560" height="1440" viewBox="0 0 2560 1440" fill="none" xmlns="http://www.w3.org/2000/svg">
<g clip-path="url(#clip0_253_1261)">
<rect width="2560" height="1440" fill="#DDF4FF"/>
<circle cx="197" cy="326" r="50" fill="white" fill-opacity="0.6"/>
<circle cx="247" cy="381" r="50" fill="white" fill-opacity="0.6"/>
<circle cx="297" cy="426" r="50" fill="white" fill-opacity="0.6"/>
<circle cx="205" cy="431" r="50" fill="white" fill-opacity="0.6"/>
<circle cx="124" cy="444" r="50" fill="white" fill-opacity="0.6"/>
<circle cx="147" cy="381" r="50" fill="white" fill-opacity="0.6"/>
<circle cx="799" cy="577" r="50" fill="white" fill-opacity="0.6"/>
<circle cx="849" cy="632" r="50" fill="white" fill-opacity="0.6"/>
<circle cx="899" cy="677" r="50" fill="white" fill-opacity="0.6"/>
<circle cx="807" cy="682" r="50" fill="white" fill-opacity="0.6"/>
<circle cx="726" cy="695" r="50" fill="white" fill-opacity="0.6"/>
<circle cx="749" cy="632" r="50" fill="white" fill-opacity="0.6"/>
<circle cx="97" cy="802" r="50" fill="white" fill-opacity="0.6"/>
<circle cx="147" cy="857" r="50" fill="white" fill-opacity="0.6"/>
<circle cx="197" cy="902" r="50" fill="white" fill-opacity="0.6"/>
<circle cx="105" cy="907" r="50" fill="white" fill-opacity="0.6"/>
<circle cx="24" cy="920" r="50" fill="white" fill-opacity="0.6"/>
<circle cx="47" cy="857" r="50" fill="white" fill-opacity="0.6"/>
<circle cx="1386" cy="811" r="50" fill="white" fill-opacity="0.6"/>
<circle cx="1436" cy="866" r="50" fill="white" fill-opacity="0.6"/>
<circle cx="1486" cy="911" r="50" fill="white" fill-opacity="0.6"/>
<circle cx="1394" cy="916" r="50" fill="white" fill-opacity="0.6"/>
<circle cx="1313" cy="929" r="50" fill="white" fill-opacity="0.6"/>
<circle cx="1336" cy="866" r="50" fill="white" fill-opacity="0.6"/>
<circle cx="1361" cy="197" r="50" fill="white" fill-opacity="0.6"/>
<circle cx="1411" cy="252" r="50" fill="white" fill-opacity="0.6"/>
<circle cx="1461" cy="297" r="50" fill="white" fill-opacity="0.6"/>
<circle cx="1369" cy="302" r="50" fill="white" fill-opacity="0.6"/>
<circle cx="1288" cy="315" r="50" fill="white" fill-opacity="0.6"/>
<circle cx="1311" cy="252" r="50" fill="white" fill-opacity="0.6"/>
</g>
<defs>
<clipPath id="clip0_253_1261">
<rect width="2560" height="1440" fill="white"/>
</clipPath>
</defs>
</svg>
