<svg width="92" height="69" viewBox="0 0 92 69" fill="none" xmlns="http://www.w3.org/2000/svg">
<rect x="0.7" y="0.7" width="90.6" height="27.6" rx="3.3" fill="#2CFD93"/>
<rect x="0.7" y="0.7" width="90.6" height="27.6" rx="3.3" stroke="black" stroke-width="1.4"/>
<circle cx="16" cy="14.5" r="4.5" fill="#F55243" stroke="black"/>
<path d="M33.752 20.692C32.8987 20.692 32.1093 20.5373 31.384 20.228C30.6693 19.9187 30.04 19.4867 29.496 18.932C28.9627 18.3773 28.5467 17.7267 28.248 16.98C27.9493 16.2333 27.8 15.4173 27.8 14.532C27.8 13.6467 27.944 12.8307 28.232 12.084C28.5307 11.3267 28.9467 10.676 29.48 10.132C30.024 9.57733 30.6587 9.15067 31.384 8.852C32.1093 8.54267 32.8987 8.388 33.752 8.388C34.6053 8.388 35.368 8.532 36.04 8.82C36.7227 9.108 37.2987 9.492 37.768 9.972C38.2373 10.4413 38.5733 10.9587 38.776 11.524L36.824 12.436C36.6 11.8387 36.2213 11.348 35.688 10.964C35.1547 10.5693 34.5093 10.372 33.752 10.372C33.0053 10.372 32.344 10.548 31.768 10.9C31.2027 11.252 30.76 11.7373 30.44 12.356C30.1307 12.9747 29.976 13.7 29.976 14.532C29.976 15.364 30.1307 16.0947 30.44 16.724C30.76 17.3427 31.2027 17.828 31.768 18.18C32.344 18.532 33.0053 18.708 33.752 18.708C34.5093 18.708 35.1547 18.516 35.688 18.132C36.2213 17.7373 36.6 17.2413 36.824 16.644L38.776 17.556C38.5733 18.1213 38.2373 18.644 37.768 19.124C37.2987 19.5933 36.7227 19.972 36.04 20.26C35.368 20.548 34.6053 20.692 33.752 20.692ZM39.5666 20.5L43.6786 8.58H46.4946L50.6066 20.5H48.2386L47.3906 17.94H42.7826L41.9186 20.5H39.5666ZM43.4066 16.02H46.7666L44.7826 10.084H45.3906L43.4066 16.02ZM51.9333 20.5V8.58H54.1093V18.58H59.2133V20.5H51.9333ZM60.6208 20.5V8.58H68.5408V10.5H62.7968V13.556H68.2208V15.476H62.7968V18.58H68.5408V20.5H60.6208ZM70.1364 20.5V8.58H75.1604C75.9497 8.58 76.6217 8.71867 77.1764 8.996C77.7417 9.26267 78.1737 9.64667 78.4724 10.148C78.7817 10.6387 78.9364 11.236 78.9364 11.94C78.9364 12.484 78.787 12.996 78.4884 13.476C78.2004 13.9453 77.7364 14.3347 77.0964 14.644V13.636C77.683 13.86 78.147 14.1373 78.4884 14.468C78.8297 14.7987 79.0697 15.1667 79.2084 15.572C79.347 15.9773 79.4164 16.404 79.4164 16.852C79.4164 17.9933 79.0377 18.8893 78.2804 19.54C77.5337 20.18 76.4937 20.5 75.1604 20.5H70.1364ZM72.3124 18.58H75.3844C75.9497 18.58 76.3977 18.4253 76.7284 18.116C77.0697 17.796 77.2404 17.3747 77.2404 16.852C77.2404 16.3293 77.0697 15.908 76.7284 15.588C76.3977 15.268 75.9497 15.108 75.3844 15.108H72.3124V18.58ZM72.3124 13.204H75.2724C75.7204 13.204 76.0777 13.076 76.3444 12.82C76.611 12.5533 76.7444 12.212 76.7444 11.796C76.7444 11.38 76.611 11.0493 76.3444 10.804C76.0777 10.5587 75.7204 10.436 75.2724 10.436H72.3124V13.204Z" fill="#111111"/>
<path d="M45.9998 32.833C49.4034 32.833 52.6682 34.1851 55.075 36.5918C57.4815 38.9984 58.8337 42.2626 58.8337 45.666C58.8337 50.502 55.9022 55.443 52.8904 59.2275C51.3934 61.1085 49.8955 62.6811 48.7712 63.7832C48.2096 64.3338 47.7421 64.7664 47.4158 65.0605C47.2526 65.2076 47.1244 65.3202 47.0378 65.3955C46.9947 65.4331 46.9621 65.4617 46.9402 65.4805C46.9294 65.4897 46.9211 65.4965 46.9158 65.501C46.9133 65.503 46.9111 65.5048 46.9099 65.5059L46.908 65.5068L46.8992 65.5146L46.8914 65.5215C46.4124 65.9625 45.5962 65.9624 45.1052 65.5186L45.0994 65.5127L45.0925 65.5068H45.0916L45.0906 65.5059C45.0893 65.5048 45.0873 65.5032 45.0847 65.501C45.0794 65.4965 45.0711 65.4897 45.0603 65.4805C45.0384 65.4618 45.0058 65.4331 44.9626 65.3955C44.8761 65.3202 44.7479 65.2076 44.5847 65.0605C44.2584 64.7664 43.7909 64.3338 43.2292 63.7832C42.105 62.6811 40.607 61.1085 39.1101 59.2275C36.0982 55.443 33.1667 50.5021 33.1667 45.666C33.1668 42.2625 34.5189 38.9984 36.9255 36.5918C39.3322 34.1852 42.5963 32.8331 45.9998 32.833ZM45.9998 39.333C44.3202 39.3331 42.7099 40.0008 41.5222 41.1885C40.3346 42.3761 39.6668 43.9864 39.6667 45.666C39.6667 47.3457 40.3345 48.9568 41.5222 50.1445C42.7099 51.3321 44.3202 51.9999 45.9998 52C46.8314 52 47.6552 51.8358 48.4236 51.5176C49.192 51.1993 49.8902 50.7326 50.4783 50.1445C51.0664 49.5564 51.533 48.8582 51.8513 48.0898C52.1696 47.3215 52.3337 46.4977 52.3337 45.666C52.3337 44.8346 52.1694 44.0113 51.8513 43.2432C51.5331 42.4748 51.0663 41.7765 50.4783 41.1885C49.8902 40.6004 49.192 40.1337 48.4236 39.8154C47.6552 39.4972 46.8315 39.333 45.9998 39.333Z" fill="#2CFD93" stroke="black"/>
</svg>
