<svg width="2048" height="438" viewBox="0 0 2048 438" fill="none" xmlns="http://www.w3.org/2000/svg">
<rect width="2048" height="438" fill="#FFEBDE"/>
<path d="M280.081 49.4692L12.7956 28H0V137.842H84.5928L371.782 154.319L1101.84 176.287C1200.41 181.28 1572.29 175.488 1890.19 154.319C2020.28 145.656 1461.54 165.802 1219.84 165.802L1024.36 154.319C988.812 154.651 917.726 151.822 917.726 137.842C917.726 123.862 825.787 122.032 779.818 122.864L522.485 94.9039L313.491 77.429L280.081 49.4692Z" fill="#FFE2CF"/>
<path d="M1273.87 298.611L1827.63 288.626L1915.78 264.66L1978.34 242.192L2048 225.716V284.821V288.626V329.067H1978.34L1900.14 337.056L1214.16 351.036L1162.97 361.022L1055.63 366.014L902.087 376H572.246H371.782L676.032 366.014L859.435 361.022L1162.97 329.067L1273.87 298.611Z" fill="#FFE2CF"/>
</svg>
