<svg width="139" height="69" viewBox="0 0 139 69" fill="none" xmlns="http://www.w3.org/2000/svg">
<rect x="0.7" y="0.7" width="137.6" height="27.6" rx="3.3" fill="#FACA5B"/>
<rect x="0.7" y="0.7" width="137.6" height="27.6" rx="3.3" stroke="black" stroke-width="1.4"/>
<circle cx="15" cy="14.5" r="4.5" fill="#FA79FD" stroke="black"/>
<path d="M32.752 20.692C31.8987 20.692 31.1093 20.5373 30.384 20.228C29.6693 19.9187 29.04 19.4867 28.496 18.932C27.9627 18.3773 27.5467 17.7267 27.248 16.98C26.9493 16.2333 26.8 15.4173 26.8 14.532C26.8 13.6467 26.944 12.8307 27.232 12.084C27.5307 11.3267 27.9467 10.676 28.48 10.132C29.024 9.57733 29.6587 9.15067 30.384 8.852C31.1093 8.54267 31.8987 8.388 32.752 8.388C33.6053 8.388 34.368 8.532 35.04 8.82C35.7227 9.108 36.2987 9.492 36.768 9.972C37.2373 10.4413 37.5733 10.9587 37.776 11.524L35.824 12.436C35.6 11.8387 35.2213 11.348 34.688 10.964C34.1547 10.5693 33.5093 10.372 32.752 10.372C32.0053 10.372 31.344 10.548 30.768 10.9C30.2027 11.252 29.76 11.7373 29.44 12.356C29.1307 12.9747 28.976 13.7 28.976 14.532C28.976 15.364 29.1307 16.0947 29.44 16.724C29.76 17.3427 30.2027 17.828 30.768 18.18C31.344 18.532 32.0053 18.708 32.752 18.708C33.5093 18.708 34.1547 18.516 34.688 18.132C35.2213 17.7373 35.6 17.2413 35.824 16.644L37.776 17.556C37.5733 18.1213 37.2373 18.644 36.768 19.124C36.2987 19.5933 35.7227 19.972 35.04 20.26C34.368 20.548 33.6053 20.692 32.752 20.692ZM45.4146 20.692C44.54 20.692 43.724 20.5373 42.9666 20.228C42.2093 19.9187 41.548 19.4867 40.9826 18.932C40.4173 18.3773 39.9746 17.7267 39.6546 16.98C39.3453 16.2227 39.1906 15.4067 39.1906 14.532C39.1906 13.6467 39.3453 12.8307 39.6546 12.084C39.964 11.3373 40.4013 10.6867 40.9666 10.132C41.532 9.57733 42.1933 9.15067 42.9506 8.852C43.708 8.54267 44.5293 8.388 45.4146 8.388C46.3 8.388 47.1213 8.54267 47.8786 8.852C48.636 9.16133 49.2973 9.59333 49.8626 10.148C50.428 10.692 50.8653 11.3373 51.1746 12.084C51.4946 12.8307 51.6546 13.6467 51.6546 14.532C51.6546 15.4067 51.4946 16.2227 51.1746 16.98C50.8546 17.7267 50.412 18.3773 49.8466 18.932C49.2813 19.4867 48.62 19.9187 47.8626 20.228C47.116 20.5373 46.3 20.692 45.4146 20.692ZM45.4146 18.708C46.0013 18.708 46.54 18.6067 47.0306 18.404C47.5213 18.1907 47.948 17.8973 48.3106 17.524C48.684 17.1507 48.9666 16.708 49.1586 16.196C49.3613 15.684 49.4626 15.1293 49.4626 14.532C49.4626 13.9347 49.3613 13.3853 49.1586 12.884C48.9666 12.372 48.684 11.9293 48.3106 11.556C47.948 11.172 47.5213 10.8787 47.0306 10.676C46.54 10.4733 46.0013 10.372 45.4146 10.372C44.8386 10.372 44.3053 10.4733 43.8146 10.676C43.324 10.8787 42.892 11.172 42.5186 11.556C42.156 11.9293 41.8733 12.372 41.6706 12.884C41.468 13.3853 41.3666 13.9347 41.3666 14.532C41.3666 15.1293 41.468 15.684 41.6706 16.196C41.8733 16.708 42.156 17.1507 42.5186 17.524C42.892 17.8973 43.324 18.1907 43.8146 18.404C44.3053 18.6067 44.8386 18.708 45.4146 18.708ZM53.5895 20.5V8.58H55.2855L61.8455 17.412L60.9655 17.588V8.58H63.1415V20.5H61.4295L54.9655 11.604L55.7655 11.428V20.5H53.5895ZM68.6329 20.5L64.4729 8.58H66.8409L70.1049 18.452H69.6409L72.9049 8.58H75.2729L71.1289 20.5H68.6329ZM76.6051 20.5V8.58H84.5251V10.5H78.7811V13.556H84.2051V15.476H78.7811V18.58H84.5251V20.5H76.6051ZM86.1208 20.5V8.58H87.8168L94.3767 17.412L93.4968 17.588V8.58H95.6728V20.5H93.9608L87.4968 11.604L88.2968 11.428V20.5H86.1208ZM97.0041 20.5L101.116 8.58H103.932L108.044 20.5H105.676L104.828 17.94H100.22L99.3561 20.5H97.0041ZM100.844 16.02H104.204L102.22 10.084H102.828L100.844 16.02ZM109.371 20.5V8.58H111.067L117.627 17.412L116.747 17.588V8.58H118.923V20.5H117.211L110.747 11.604L111.547 11.428V20.5H109.371ZM123.342 20.5V10.5H120.254V8.58H128.574V10.5H125.534V20.5H123.342Z" fill="#111111"/>
<path d="M68.9995 32.833C72.4031 32.833 75.668 34.1851 78.0747 36.5918C80.4812 38.9984 81.8334 42.2626 81.8335 45.666C81.8335 50.502 78.902 55.443 75.8901 59.2275C74.3932 61.1085 72.8952 62.6811 71.771 63.7832C71.2094 64.3338 70.7419 64.7664 70.4155 65.0605C70.2524 65.2076 70.1241 65.3202 70.0376 65.3955C69.9944 65.4331 69.9618 65.4617 69.9399 65.4805C69.9292 65.4897 69.9209 65.4965 69.9155 65.501C69.9131 65.503 69.9109 65.5048 69.9097 65.5059L69.9077 65.5068L69.8989 65.5146L69.8911 65.5215C69.4121 65.9625 68.5959 65.9624 68.105 65.5186L68.0991 65.5127L68.0923 65.5068H68.0913L68.0903 65.5059C68.0891 65.5048 68.087 65.5032 68.0845 65.501C68.0792 65.4965 68.0709 65.4897 68.0601 65.4805C68.0382 65.4618 68.0056 65.4331 67.9624 65.3955C67.8759 65.3202 67.7476 65.2076 67.5845 65.0605C67.2581 64.7664 66.7907 64.3338 66.229 63.7832C65.1048 62.6811 63.6068 61.1085 62.1099 59.2275C59.098 55.443 56.1665 50.5021 56.1665 45.666C56.1666 42.2625 57.5187 38.9984 59.9253 36.5918C62.3319 34.1852 65.596 32.8331 68.9995 32.833ZM68.9995 39.333C67.3199 39.3331 65.7096 40.0008 64.522 41.1885C63.3343 42.3761 62.6666 43.9864 62.6665 45.666C62.6665 47.3457 63.3342 48.9568 64.522 50.1445C65.7096 51.3321 67.32 51.9999 68.9995 52C69.8312 52 70.655 51.8358 71.4233 51.5176C72.1917 51.1993 72.8899 50.7326 73.478 50.1445C74.0661 49.5564 74.5328 48.8582 74.8511 48.0898C75.1693 47.3215 75.3335 46.4977 75.3335 45.666C75.3335 44.8346 75.1692 44.0113 74.8511 43.2432C74.5328 42.4748 74.0661 41.7765 73.478 41.1885C72.8899 40.6004 72.1917 40.1337 71.4233 39.8154C70.655 39.4972 69.8312 39.333 68.9995 39.333Z" fill="#FACA5B" stroke="black"/>
</svg>
