<svg width="2560" height="1440" viewBox="0 0 2560 1440" fill="none" xmlns="http://www.w3.org/2000/svg">
<rect width="2560" height="1440" fill="#FFEBDE"/>
<path d="M350.101 115.469L15.9944 94H0V203.842H105.741L464.728 220.319L1377.3 242.287C1500.52 247.28 1965.36 241.488 2362.74 220.319C2525.35 211.656 1826.92 231.802 1524.8 231.802L1280.44 220.319C1236.02 220.651 1147.16 217.822 1147.16 203.842C1147.16 189.862 1032.23 188.032 974.773 188.864L653.107 160.904L391.864 143.429L350.101 115.469Z" fill="#FFE2CF"/>
<path d="M1592.34 364.611L2284.54 354.626L2394.72 330.66L2472.92 308.192L2560 291.716V350.821V354.626V395.067H2472.92L2375.18 403.056L1517.7 417.036L1453.72 427.022L1319.54 432.014L1127.61 442H715.307H464.728L845.04 432.014L1074.29 427.022L1453.72 395.067L1592.34 364.611Z" fill="#FFE2CF"/>
</svg>
