<svg width="83" height="69" viewBox="0 0 83 69" fill="none" xmlns="http://www.w3.org/2000/svg">
<rect x="0.7" y="0.7" width="81.6" height="27.6" rx="3.3" fill="#FF2DA1"/>
<rect x="0.7" y="0.7" width="81.6" height="27.6" rx="3.3" stroke="black" stroke-width="1.4"/>
<circle cx="16.5" cy="14.5" r="4.5" fill="#FFF159" stroke="black"/>
<path d="M28.652 20.5V8.58H30.828V18.58H35.932V20.5H28.652ZM36.3635 20.5L40.4755 8.58H43.2915L47.4035 20.5H45.0355L44.1875 17.94H39.5795L38.7155 20.5H36.3635ZM40.2035 16.02H43.5635L41.5795 10.084H42.1875L40.2035 16.02ZM52.8299 20.692C52.0725 20.692 51.3685 20.5533 50.7179 20.276C50.0779 19.9987 49.5232 19.6147 49.0539 19.124C48.5952 18.6227 48.2592 18.0413 48.0459 17.38L49.8539 16.596C50.1419 17.2787 50.5579 17.8173 51.1019 18.212C51.6459 18.596 52.2592 18.788 52.9419 18.788C53.3259 18.788 53.6565 18.7293 53.9339 18.612C54.2219 18.484 54.4405 18.3133 54.5899 18.1C54.7499 17.8867 54.8299 17.6307 54.8299 17.332C54.8299 16.98 54.7232 16.692 54.5099 16.468C54.3072 16.2333 53.9979 16.052 53.5819 15.924L51.2939 15.188C50.3659 14.9 49.6672 14.468 49.1979 13.892C48.7285 13.316 48.4939 12.6387 48.4939 11.86C48.4939 11.1773 48.6592 10.5747 48.9899 10.052C49.3312 9.52933 49.8005 9.124 50.3979 8.836C51.0059 8.53733 51.6992 8.388 52.4779 8.388C53.1925 8.388 53.8485 8.516 54.4459 8.772C55.0432 9.01733 55.5552 9.364 55.9819 9.812C56.4192 10.2493 56.7445 10.7667 56.9579 11.364L55.1659 12.164C54.9312 11.5667 54.5792 11.108 54.1099 10.788C53.6405 10.4573 53.0965 10.292 52.4779 10.292C52.1152 10.292 51.7952 10.356 51.5179 10.484C51.2405 10.6013 51.0219 10.772 50.8619 10.996C50.7125 11.2093 50.6379 11.4653 50.6379 11.764C50.6379 12.0947 50.7445 12.388 50.9579 12.644C51.1712 12.8893 51.4965 13.0813 51.9339 13.22L54.1259 13.908C55.0752 14.2173 55.7845 14.644 56.2539 15.188C56.7339 15.732 56.9739 16.404 56.9739 17.204C56.9739 17.8867 56.7979 18.4893 56.4459 19.012C56.0939 19.5347 55.6085 19.9453 54.9899 20.244C54.3712 20.5427 53.6512 20.692 52.8299 20.692ZM63.5253 20.692C62.6079 20.692 61.7919 20.5 61.0773 20.116C60.3733 19.732 59.8186 19.204 59.4133 18.532C59.0079 17.86 58.8053 17.0973 58.8053 16.244V8.58H60.9813V16.132C60.9813 16.6227 61.0879 17.0653 61.3013 17.46C61.5253 17.8547 61.8293 18.164 62.2133 18.388C62.5973 18.6013 63.0346 18.708 63.5253 18.708C64.0266 18.708 64.4639 18.6013 64.8373 18.388C65.2213 18.164 65.5199 17.8547 65.7333 17.46C65.9573 17.0653 66.0693 16.6227 66.0693 16.132V8.58H68.2453V16.244C68.2453 17.0973 68.0426 17.86 67.6373 18.532C67.2319 19.204 66.6719 19.732 65.9573 20.116C65.2533 20.5 64.4426 20.692 63.5253 20.692Z" fill="#111111"/>
<path d="M40.9995 32.833C44.4031 32.833 47.668 34.1851 50.0747 36.5918C52.4812 38.9984 53.8334 42.2626 53.8335 45.666C53.8335 50.502 50.902 55.443 47.8901 59.2275C46.3932 61.1085 44.8952 62.6811 43.771 63.7832C43.2094 64.3338 42.7419 64.7664 42.4155 65.0605C42.2524 65.2076 42.1241 65.3202 42.0376 65.3955C41.9944 65.4331 41.9618 65.4617 41.9399 65.4805C41.9292 65.4897 41.9209 65.4965 41.9155 65.501C41.9131 65.503 41.9109 65.5048 41.9097 65.5059L41.9077 65.5068L41.8989 65.5146L41.8911 65.5215C41.4121 65.9625 40.5959 65.9624 40.105 65.5186L40.0991 65.5127L40.0923 65.5068H40.0913L40.0903 65.5059C40.0891 65.5048 40.087 65.5032 40.0845 65.501C40.0792 65.4965 40.0709 65.4897 40.0601 65.4805C40.0382 65.4618 40.0056 65.4331 39.9624 65.3955C39.8759 65.3202 39.7476 65.2076 39.5845 65.0605C39.2581 64.7664 38.7907 64.3338 38.229 63.7832C37.1048 62.6811 35.6068 61.1085 34.1099 59.2275C31.098 55.443 28.1665 50.5021 28.1665 45.666C28.1666 42.2625 29.5187 38.9984 31.9253 36.5918C34.3319 34.1852 37.596 32.8331 40.9995 32.833ZM40.9995 39.333C39.3199 39.3331 37.7096 40.0008 36.522 41.1885C35.3343 42.3761 34.6666 43.9864 34.6665 45.666C34.6665 47.3457 35.3342 48.9568 36.522 50.1445C37.7096 51.3321 39.32 51.9999 40.9995 52C41.8312 52 42.655 51.8358 43.4233 51.5176C44.1917 51.1993 44.8899 50.7326 45.478 50.1445C46.0661 49.5564 46.5328 48.8582 46.8511 48.0898C47.1693 47.3215 47.3335 46.4977 47.3335 45.666C47.3335 44.8346 47.1692 44.0113 46.8511 43.2432C46.5328 42.4748 46.0661 41.7765 45.478 41.1885C44.8899 40.6004 44.1917 40.1337 43.4233 39.8154C42.655 39.4972 41.8312 39.333 40.9995 39.333Z" fill="#FF2DA1" stroke="black"/>
</svg>
