<svg width="123" height="73" viewBox="0 0 123 73" fill="none" xmlns="http://www.w3.org/2000/svg">
<rect x="0.7" y="0.7" width="121.6" height="27.6" rx="3.3" fill="#5577FF"/>
<rect x="0.7" y="0.7" width="121.6" height="27.6" rx="3.3" stroke="black" stroke-width="1.4"/>
<circle cx="14" cy="14.5" r="4.5" fill="#43F56A" stroke="black"/>
<path d="M26.152 20.5V8.58H28.328V18.58H33.432V20.5H26.152ZM33.8635 20.5L37.9755 8.58H40.7915L44.9035 20.5H42.5355L41.6875 17.94H37.0795L36.2155 20.5H33.8635ZM37.7035 16.02H41.0635L39.0795 10.084H39.6875L37.7035 16.02ZM50.3299 20.692C49.5725 20.692 48.8685 20.5533 48.2179 20.276C47.5779 19.9987 47.0232 19.6147 46.5539 19.124C46.0952 18.6227 45.7592 18.0413 45.5459 17.38L47.3539 16.596C47.6419 17.2787 48.0579 17.8173 48.6019 18.212C49.1459 18.596 49.7592 18.788 50.4419 18.788C50.8259 18.788 51.1565 18.7293 51.4339 18.612C51.7219 18.484 51.9405 18.3133 52.0899 18.1C52.2499 17.8867 52.3299 17.6307 52.3299 17.332C52.3299 16.98 52.2232 16.692 52.0099 16.468C51.8072 16.2333 51.4979 16.052 51.0819 15.924L48.7939 15.188C47.8659 14.9 47.1672 14.468 46.6979 13.892C46.2285 13.316 45.9939 12.6387 45.9939 11.86C45.9939 11.1773 46.1592 10.5747 46.4899 10.052C46.8312 9.52933 47.3005 9.124 47.8979 8.836C48.5059 8.53733 49.1992 8.388 49.9779 8.388C50.6925 8.388 51.3485 8.516 51.9459 8.772C52.5432 9.01733 53.0552 9.364 53.4819 9.812C53.9192 10.2493 54.2445 10.7667 54.4579 11.364L52.6659 12.164C52.4312 11.5667 52.0792 11.108 51.6099 10.788C51.1405 10.4573 50.5965 10.292 49.9779 10.292C49.6152 10.292 49.2952 10.356 49.0179 10.484C48.7405 10.6013 48.5219 10.772 48.3619 10.996C48.2125 11.2093 48.1379 11.4653 48.1379 11.764C48.1379 12.0947 48.2445 12.388 48.4579 12.644C48.6712 12.8893 48.9965 13.0813 49.4339 13.22L51.6259 13.908C52.5752 14.2173 53.2845 14.644 53.7539 15.188C54.2339 15.732 54.4739 16.404 54.4739 17.204C54.4739 17.8867 54.2979 18.4893 53.9459 19.012C53.5939 19.5347 53.1085 19.9453 52.4899 20.244C51.8712 20.5427 51.1512 20.692 50.3299 20.692ZM61.0253 20.692C60.1079 20.692 59.2919 20.5 58.5773 20.116C57.8733 19.732 57.3186 19.204 56.9133 18.532C56.5079 17.86 56.3053 17.0973 56.3053 16.244V8.58H58.4813V16.132C58.4813 16.6227 58.5879 17.0653 58.8013 17.46C59.0253 17.8547 59.3293 18.164 59.7133 18.388C60.0973 18.6013 60.5346 18.708 61.0253 18.708C61.5266 18.708 61.9639 18.6013 62.3373 18.388C62.7213 18.164 63.0199 17.8547 63.2333 17.46C63.4573 17.0653 63.5693 16.6227 63.5693 16.132V8.58H65.7453V16.244C65.7453 17.0973 65.5426 17.86 65.1373 18.532C64.7319 19.204 64.1719 19.732 63.4573 20.116C62.7533 20.5 61.9426 20.692 61.0253 20.692ZM72.8734 20.5V10.5H69.7854V8.58H78.1054V10.5H75.0654V20.5H72.8734ZM79.4333 20.5V8.58H87.3533V10.5H81.6093V13.556H87.0333V15.476H81.6093V18.58H87.3533V20.5H79.4333ZM94.5489 20.692C93.6955 20.692 92.9062 20.5373 92.1809 20.228C91.4662 19.9187 90.8369 19.4867 90.2929 18.932C89.7595 18.3773 89.3435 17.7267 89.0449 16.98C88.7462 16.2333 88.5969 15.4173 88.5969 14.532C88.5969 13.6467 88.7409 12.8307 89.0289 12.084C89.3275 11.3267 89.7435 10.676 90.2769 10.132C90.8209 9.57733 91.4555 9.15067 92.1809 8.852C92.9062 8.54267 93.6955 8.388 94.5489 8.388C95.4022 8.388 96.1649 8.532 96.8369 8.82C97.5195 9.108 98.0955 9.492 98.5649 9.972C99.0342 10.4413 99.3702 10.9587 99.5729 11.524L97.6209 12.436C97.3969 11.8387 97.0182 11.348 96.4849 10.964C95.9515 10.5693 95.3062 10.372 94.5489 10.372C93.8022 10.372 93.1409 10.548 92.5649 10.9C91.9995 11.252 91.5569 11.7373 91.2369 12.356C90.9275 12.9747 90.7729 13.7 90.7729 14.532C90.7729 15.364 90.9275 16.0947 91.2369 16.724C91.5569 17.3427 91.9995 17.828 92.5649 18.18C93.1409 18.532 93.8022 18.708 94.5489 18.708C95.3062 18.708 95.9515 18.516 96.4849 18.132C97.0182 17.7373 97.3969 17.2413 97.6209 16.644L99.5729 17.556C99.3702 18.1213 99.0342 18.644 98.5649 19.124C98.0955 19.5933 97.5195 19.972 96.8369 20.26C96.1649 20.548 95.4022 20.692 94.5489 20.692ZM101.34 20.5V8.58H103.516V13.78H108.588V8.58H110.78V20.5H108.588V15.7H103.516V20.5H101.34Z" fill="white"/>
<path d="M60.9998 36.833C64.4034 36.833 67.6682 38.1851 70.075 40.5918C72.4815 42.9984 73.8337 46.2626 73.8337 49.666C73.8337 54.502 70.9022 59.443 67.8904 63.2275C66.3934 65.1085 64.8955 66.6811 63.7712 67.7832C63.2096 68.3338 62.7421 68.7664 62.4158 69.0605C62.2526 69.2076 62.1244 69.3202 62.0378 69.3955C61.9947 69.4331 61.9621 69.4617 61.9402 69.4805C61.9294 69.4897 61.9211 69.4965 61.9158 69.501C61.9133 69.503 61.9111 69.5048 61.9099 69.5059L61.908 69.5068L61.8992 69.5146L61.8914 69.5215C61.4124 69.9625 60.5962 69.9624 60.1052 69.5186L60.0994 69.5127L60.0925 69.5068H60.0916L60.0906 69.5059C60.0893 69.5048 60.0873 69.5032 60.0847 69.501C60.0794 69.4965 60.0711 69.4897 60.0603 69.4805C60.0384 69.4618 60.0058 69.4331 59.9626 69.3955C59.8761 69.3202 59.7479 69.2076 59.5847 69.0605C59.2584 68.7664 58.7909 68.3338 58.2292 67.7832C57.105 66.6811 55.607 65.1085 54.1101 63.2275C51.0982 59.443 48.1667 54.5021 48.1667 49.666C48.1668 46.2625 49.5189 42.9984 51.9255 40.5918C54.3322 38.1852 57.5963 36.8331 60.9998 36.833ZM60.9998 43.333C59.3202 43.3331 57.7099 44.0008 56.5222 45.1885C55.3346 46.3761 54.6668 47.9864 54.6667 49.666C54.6667 51.3457 55.3345 52.9568 56.5222 54.1445C57.7099 55.3321 59.3202 55.9999 60.9998 56C61.8314 56 62.6552 55.8358 63.4236 55.5176C64.192 55.1993 64.8902 54.7326 65.4783 54.1445C66.0664 53.5564 66.533 52.8582 66.8513 52.0898C67.1696 51.3215 67.3337 50.4977 67.3337 49.666C67.3337 48.8346 67.1694 48.0113 66.8513 47.2432C66.5331 46.4748 66.0663 45.7765 65.4783 45.1885C64.8902 44.6004 64.192 44.1337 63.4236 43.8154C62.6552 43.4972 61.8315 43.333 60.9998 43.333Z" fill="#5577FF" stroke="black"/>
</svg>
