<svg width="138" height="44" viewBox="0 0 138 44" fill="none" xmlns="http://www.w3.org/2000/svg">
<path fill-rule="evenodd" clip-rule="evenodd" d="M10.0745 11.0341C10.1495 11.0341 10.2238 11.0489 10.293 11.0776C10.3623 11.1063 10.4253 11.1484 10.4783 11.2015C10.5313 11.2545 10.5734 11.3175 10.6021 11.3868C10.6308 11.4561 10.6456 11.5304 10.6456 11.6055V13.5099C10.6456 13.7622 10.7172 14.0093 10.8519 14.2225C10.9867 14.4356 11.1792 14.6062 11.407 14.7143V11.6055C11.407 11.4539 11.4672 11.3086 11.5743 11.2015C11.6814 11.0943 11.8266 11.0341 11.9781 11.0341C12.1295 11.0341 12.2748 11.0943 12.3819 11.2015C12.489 11.3086 12.5492 11.4539 12.5492 11.6055V14.7143C12.777 14.6062 12.9694 14.4356 13.1042 14.2225C13.239 14.0093 13.3106 13.7622 13.3106 13.5099V11.6055C13.3106 11.4539 13.3708 11.3086 13.4779 11.2015C13.5849 11.0943 13.7302 11.0341 13.8817 11.0341C14.0331 11.0341 14.1784 11.0943 14.2855 11.2015C14.3926 11.3086 14.4527 11.4539 14.4527 11.6055V13.5099C14.4527 14.0333 14.2868 14.5432 13.979 14.9664C13.6712 15.3896 13.2373 15.7043 12.7395 15.8654V20.9191C12.7395 21.1211 12.6593 21.3149 12.5165 21.4577C12.3737 21.6006 12.18 21.6809 11.9781 21.6809C11.7761 21.6809 11.5825 21.6006 11.4397 21.4577C11.2969 21.3149 11.2167 21.1211 11.2167 20.9191V15.8661C10.7188 15.7051 10.2847 15.3902 9.97691 14.9669C9.66909 14.5435 9.50332 14.0334 9.50343 13.5099V11.6055C9.50343 11.4539 9.5636 11.3086 9.67069 11.2015C9.77779 11.0943 9.92305 11.0341 10.0745 11.0341ZM17.7269 11.0341C16.3776 11.0341 15.4875 12.3497 15.4875 13.692C15.4875 14.7615 16.0525 15.8143 16.9647 16.1983V20.9191C16.9647 21.1211 17.0449 21.3149 17.1877 21.4577C17.3305 21.6006 17.5242 21.6809 17.7261 21.6809C17.9281 21.6809 18.1217 21.6006 18.2645 21.4577C18.4073 21.3149 18.4876 21.1211 18.4876 20.9191V16.1975C19.4013 15.8143 19.9663 14.7615 19.9663 13.6912C19.9663 12.3497 19.0754 11.0341 17.7269 11.0341Z" fill="#FF771F"/>
<path d="M23.5164 10.9373C23.2033 9.95429 22.7822 9.07391 22.2531 8.29614C21.7349 7.50758 21.114 6.83784 20.3906 6.28692C19.6672 5.7252 18.8412 5.29851 17.9126 5.00685C16.9949 4.71519 15.9853 4.56936 14.884 4.56936C13.0161 4.56936 11.3317 5.05006 9.83089 6.01147C8.33007 6.97287 7.14238 8.38256 6.2678 10.2406C5.40402 12.0877 4.97213 14.3508 4.97213 17.0298C4.97213 19.7195 5.40942 21.9934 6.284 23.8514C7.15857 25.7094 8.35707 27.1191 9.87948 28.0805C11.4019 29.0419 13.1348 29.5226 15.0784 29.5226C16.8815 29.5226 18.4525 29.1553 19.7913 28.4208C21.141 27.6862 22.1829 26.6492 22.9172 25.3097C23.6622 23.9594 24.0347 22.3715 24.0347 20.5459L24.7041 22.4412H11.4019C11.4019 22.4412 10.3445 22.4413 8.91388 22.4413C7.48325 22.4413 6.93301 21.12 6.93301 20.57C6.93301 20.02 6.93301 17.0298 6.93301 17.0298L28.8772 16.6571V20.4325C28.8772 23.2195 28.2834 25.6392 27.0957 27.6916C25.9188 29.7333 24.2884 31.3104 22.2045 32.423C20.1315 33.5357 17.7561 34.092 15.0784 34.092C12.0767 34.092 9.44219 33.4006 7.17477 32.0179C4.91815 30.6352 3.15819 28.6746 1.89492 26.1361C0.631639 23.5868 0 20.5621 0 17.0622C0 14.4156 0.367106 12.0391 1.10132 9.93269C1.83553 7.82625 2.86667 6.03847 4.19473 4.56936C5.53359 3.08945 7.10459 1.96061 8.90773 1.18285C10.7217 0.394283 12.703 0 14.8516 0C16.644 0 18.3121 0.264656 19.8561 0.793967C21.4109 1.32328 22.793 2.07404 24.0023 3.04624C25.2224 4.01845 26.2319 5.17429 27.0309 6.51377C27.8299 7.84245 28.3698 9.31696 28.6505 10.9373H23.5164Z" fill="#FF771F"/>
<path d="M1.90217 23.5855C1.90217 23.5855 4.86941 27.7262 7.60312 29.2891C10.3368 30.8519 13.8259 31.7048 17.1047 31.1903C20.3835 30.6757 22.7512 29.216 24.7059 27.3879C26.6607 25.5598 28.5066 20.5401 28.5066 20.5401V22.4413C28.5066 22.4413 28.3616 22.4282 28.3616 24.3294C28.3616 25.1576 27.7871 26.8125 26.3076 28.8984C22.5674 34.1714 14.884 44 14.884 44L2.77752 27.6916L2.06266 26.1361L1.90217 23.5855Z" fill="#FF771F"/>
<path d="M46.8942 18.9932C46.7477 18.5186 46.5456 18.0937 46.2878 17.7187C46.0358 17.3379 45.7311 17.0127 45.3736 16.7432C45.022 16.4736 44.6177 16.2715 44.1606 16.1367C43.7036 15.9961 43.2055 15.9258 42.6664 15.9258C41.6995 15.9258 40.8381 16.1689 40.0822 16.6553C39.3263 17.1416 38.7315 17.8564 38.2979 18.7998C37.8701 19.7373 37.6562 20.8799 37.6562 22.2275C37.6562 23.5869 37.8701 24.7383 38.2979 25.6816C38.7257 26.625 39.3204 27.3428 40.0822 27.835C40.844 28.3213 41.7288 28.5645 42.7367 28.5645C43.6508 28.5645 44.4419 28.3887 45.1099 28.0371C45.7838 27.6855 46.3024 27.1875 46.6657 26.543C47.029 25.8926 47.2107 25.1309 47.2107 24.2578L47.949 24.3721H43.0619V21.8232H50.3662V23.9854C50.3662 25.5264 50.0381 26.8594 49.3818 27.9844C48.7255 29.1094 47.823 29.9766 46.6745 30.5859C45.526 31.1895 44.2075 31.4912 42.7191 31.4912C41.0608 31.4912 39.6046 31.1191 38.3506 30.375C37.1025 29.625 36.1268 28.5615 35.4236 27.1846C34.7263 25.8018 34.3777 24.1611 34.3777 22.2627C34.3777 20.8096 34.5828 19.5117 34.9929 18.3691C35.409 17.2266 35.9891 16.2568 36.7333 15.46C37.4775 14.6572 38.3506 14.0479 39.3526 13.6318C40.3547 13.21 41.4446 12.999 42.6224 12.999C43.6186 12.999 44.5474 13.1455 45.4088 13.4385C46.2702 13.7256 47.0349 14.1357 47.7029 14.6689C48.3768 15.2021 48.9305 15.835 49.3642 16.5674C49.7978 17.2998 50.082 18.1084 50.2168 18.9932H46.8942Z" fill="#FF771F"/>
<path d="M53.3789 31.2451V17.7451H56.4641V19.9951H56.6047C56.8508 19.2158 57.2727 18.6152 57.8704 18.1934C58.474 17.7656 59.1625 17.5518 59.936 17.5518C60.1118 17.5518 60.3081 17.5605 60.5249 17.5781C60.7476 17.5898 60.9322 17.6103 61.0787 17.6396V20.5664C60.9439 20.5195 60.73 20.4785 60.437 20.4434C60.1499 20.4023 59.8716 20.3818 59.602 20.3818C59.0219 20.3818 58.5004 20.5078 58.0374 20.7598C57.5804 21.0059 57.22 21.3486 56.9563 21.7881C56.6926 22.2275 56.5608 22.7344 56.5608 23.3086V31.2451H53.3789Z" fill="#FF771F"/>
<path d="M63.1926 31.2451V17.7451H66.3745V31.2451H63.1926ZM64.7924 15.8291C64.2884 15.8291 63.8548 15.6621 63.4915 15.3281C63.1282 14.9883 62.9465 14.5811 62.9465 14.1064C62.9465 13.626 63.1282 13.2187 63.4915 12.8848C63.8548 12.5449 64.2884 12.375 64.7924 12.375C65.3022 12.375 65.7358 12.5449 66.0932 12.8848C66.4566 13.2187 66.6382 13.626 66.6382 14.1064C66.6382 14.5811 66.4566 14.9883 66.0932 15.3281C65.7358 15.6621 65.3022 15.8291 64.7924 15.8291Z" fill="#FF771F"/>
<path d="M74.6566 31.4824C73.596 31.4824 72.6467 31.21 71.8088 30.665C70.9708 30.1201 70.3087 29.3291 69.8223 28.292C69.3359 27.2549 69.0927 25.9951 69.0927 24.5127C69.0927 23.0127 69.3389 21.7471 69.8311 20.7158C70.3292 19.6787 71.0001 18.8965 71.8439 18.3691C72.6878 17.8359 73.6283 17.5693 74.6654 17.5693C75.4565 17.5693 76.107 17.7041 76.6168 17.9736C77.1266 18.2373 77.5309 18.5566 77.8297 18.9316C78.1286 19.3008 78.3601 19.6494 78.5241 19.9775H78.656V13.2451H81.8466V31.2451H78.7175V29.1182H78.5241C78.3601 29.4463 78.1227 29.7949 77.8122 30.1641C77.5016 30.5273 77.0914 30.8379 76.5816 31.0957C76.0718 31.3535 75.4301 31.4824 74.6566 31.4824ZM75.5444 28.8721C76.2183 28.8721 76.7925 28.6904 77.2672 28.3271C77.7418 27.958 78.1022 27.4453 78.3483 26.7891C78.5945 26.1328 78.7175 25.3682 78.7175 24.4951C78.7175 23.6221 78.5945 22.8633 78.3483 22.2188C78.1081 21.5742 77.7506 21.0732 77.276 20.7158C76.8072 20.3584 76.23 20.1797 75.5444 20.1797C74.8354 20.1797 74.2435 20.3643 73.7689 20.7334C73.2942 21.1025 72.9368 21.6123 72.6965 22.2627C72.4563 22.9131 72.3362 23.6572 72.3362 24.4951C72.3362 25.3389 72.4563 26.0918 72.6965 26.7539C72.9426 27.4102 73.303 27.9287 73.7777 28.3096C74.2582 28.6846 74.8471 28.8721 75.5444 28.8721Z" fill="#FF771F"/>
<path d="M86.2366 31.2451V13.9201H98.8848V16.6179H89.4544V28.5474H99.2314V31.2451H86.2366ZM89.2068 23.7706V21.1224H97.8205V23.7706H89.2068Z" fill="#FF771F"/>
<path d="M110.544 31.2451V28.5721L110.371 28.0029V23.3251C110.371 22.4176 110.098 21.7164 109.554 21.2214C109.009 20.7099 108.184 20.4541 107.079 20.4541C106.336 20.4541 105.602 20.5696 104.876 20.8006C104.166 21.0316 103.564 21.3534 103.069 21.7659L101.856 19.5136C102.566 18.9691 103.407 18.5649 104.381 18.3009C105.371 18.0204 106.394 17.8801 107.45 17.8801C109.364 17.8801 110.841 18.3421 111.881 19.2661C112.937 20.1736 113.465 21.5844 113.465 23.4984V31.2451H110.544ZM106.386 31.4184C105.396 31.4184 104.529 31.2534 103.787 30.9234C103.044 30.5769 102.467 30.1066 102.054 29.5126C101.658 28.9021 101.46 28.2174 101.46 27.4584C101.46 26.7159 101.633 26.0476 101.98 25.4536C102.343 24.8596 102.929 24.3894 103.737 24.0429C104.546 23.6964 105.618 23.5231 106.955 23.5231H110.791V25.5774H107.178C106.122 25.5774 105.412 25.7506 105.049 26.0971C104.686 26.4271 104.504 26.8396 104.504 27.3346C104.504 27.8956 104.727 28.3411 105.173 28.6711C105.618 29.0011 106.237 29.1661 107.029 29.1661C107.788 29.1661 108.465 28.9929 109.059 28.6464C109.669 28.2999 110.107 27.7884 110.371 27.1119L110.89 28.9681C110.593 29.7436 110.057 30.3459 109.282 30.7749C108.523 31.2039 107.557 31.4184 106.386 31.4184Z" fill="#FF771F"/>
<path d="M122.411 31.4184C120.958 31.4184 119.836 31.0471 119.044 30.3046C118.252 29.5456 117.856 28.4319 117.856 26.9634V15.1081H120.95V26.8891C120.95 27.5161 121.107 28.0029 121.42 28.3494C121.75 28.6959 122.204 28.8691 122.782 28.8691C123.475 28.8691 124.052 28.6876 124.514 28.3246L125.381 30.5274C125.018 30.8244 124.572 31.0471 124.044 31.1956C123.516 31.3441 122.972 31.4184 122.411 31.4184ZM115.678 20.5036V18.0286H124.49V20.5036H115.678Z" fill="#FF771F"/>
<path d="M132.01 31.4184C130.904 31.4184 129.84 31.2781 128.817 30.9976C127.81 30.7006 127.01 30.3459 126.416 29.9334L127.604 27.5821C128.198 27.9616 128.908 28.2751 129.733 28.5226C130.558 28.7701 131.383 28.8939 132.208 28.8939C133.182 28.8939 133.883 28.7619 134.312 28.4979C134.758 28.2339 134.98 27.8791 134.98 27.4336C134.98 27.0706 134.832 26.7984 134.535 26.6169C134.238 26.4189 133.85 26.2704 133.371 26.1714C132.893 26.0724 132.357 25.9816 131.763 25.8991C131.185 25.8166 130.599 25.7094 130.005 25.5774C129.428 25.4289 128.9 25.2226 128.421 24.9586C127.942 24.6781 127.555 24.3069 127.258 23.8449C126.961 23.3829 126.812 22.7724 126.812 22.0134C126.812 21.1719 127.051 20.4459 127.53 19.8354C128.008 19.2084 128.677 18.7299 129.535 18.3999C130.409 18.0534 131.441 17.8801 132.629 17.8801C133.52 17.8801 134.419 17.9791 135.327 18.1771C136.234 18.3751 136.985 18.6556 137.579 19.0186L136.391 21.3699C135.764 20.9904 135.129 20.7346 134.485 20.6026C133.858 20.4541 133.231 20.3799 132.604 20.3799C131.664 20.3799 130.962 20.5201 130.5 20.8006C130.055 21.0811 129.832 21.4359 129.832 21.8649C129.832 22.2609 129.98 22.5579 130.277 22.7559C130.574 22.9539 130.962 23.1106 131.441 23.2261C131.919 23.3416 132.447 23.4406 133.025 23.5231C133.619 23.5891 134.205 23.6964 134.782 23.8449C135.36 23.9934 135.888 24.1996 136.366 24.4636C136.861 24.7111 137.257 25.0659 137.554 25.5279C137.852 25.9899 138 26.5921 138 27.3346C138 28.1596 137.752 28.8774 137.257 29.4879C136.779 30.0984 136.094 30.5769 135.203 30.9234C134.312 31.2534 133.248 31.4184 132.01 31.4184Z" fill="#FF771F"/>
</svg>
