<svg width="100" height="69" viewBox="0 0 100 69" fill="none" xmlns="http://www.w3.org/2000/svg">
<rect x="0.7" y="0.7" width="98.6" height="27.6" rx="3.3" fill="#00885B"/>
<rect x="0.7" y="0.7" width="98.6" height="27.6" rx="3.3" stroke="black" stroke-width="1.4"/>
<circle cx="14.5" cy="14.5" r="4.5" fill="#79DAFD" stroke="black"/>
<path d="M31.244 20.692C30.3267 20.692 29.5107 20.5 28.796 20.116C28.092 19.732 27.5373 19.204 27.132 18.532C26.7267 17.86 26.524 17.0973 26.524 16.244V8.58H28.7V16.132C28.7 16.6227 28.8067 17.0653 29.02 17.46C29.244 17.8547 29.548 18.164 29.932 18.388C30.316 18.6013 30.7533 18.708 31.244 18.708C31.7453 18.708 32.1827 18.6013 32.556 18.388C32.94 18.164 33.2387 17.8547 33.452 17.46C33.676 17.0653 33.788 16.6227 33.788 16.132V8.58H35.964V16.244C35.964 17.0973 35.7613 17.86 35.356 18.532C34.9507 19.204 34.3907 19.732 33.676 20.116C32.972 20.5 32.1613 20.692 31.244 20.692ZM38.1364 20.5V8.58H39.8324L46.3924 17.412L45.5124 17.588V8.58H47.6884V20.5H45.9764L39.5124 11.604L40.3124 11.428V20.5H38.1364ZM49.9958 20.5V8.58H52.1718V20.5H49.9958ZM54.4645 20.5V8.58H56.6405V18.58H61.7445V20.5H54.4645ZM62.176 20.5L66.288 8.58H69.104L73.216 20.5H70.848L70 17.94H65.392L64.528 20.5H62.176ZM66.016 16.02H69.376L67.392 10.084H68L66.016 16.02ZM79.7063 20.692C78.8529 20.692 78.0636 20.5373 77.3383 20.228C76.6129 19.9187 75.9783 19.4867 75.4343 18.932C74.8903 18.3773 74.4636 17.7267 74.1543 16.98C73.8556 16.2333 73.7063 15.4173 73.7063 14.532C73.7063 13.6467 73.8503 12.8307 74.1383 12.084C74.4369 11.3267 74.8529 10.676 75.3863 10.132C75.9303 9.57733 76.5649 9.15067 77.2903 8.852C78.0156 8.54267 78.8049 8.388 79.6583 8.388C80.5116 8.388 81.2743 8.532 81.9462 8.82C82.6289 9.108 83.2049 9.492 83.6743 9.972C84.1436 10.4413 84.4796 10.9587 84.6823 11.524L82.7463 12.452C82.5223 11.8333 82.1436 11.332 81.6103 10.948C81.0769 10.564 80.4263 10.372 79.6583 10.372C78.9116 10.372 78.2503 10.548 77.6743 10.9C77.1089 11.252 76.6663 11.7373 76.3463 12.356C76.0369 12.9747 75.8823 13.7 75.8823 14.532C75.8823 15.364 76.0423 16.0947 76.3623 16.724C76.6929 17.3427 77.1463 17.828 77.7223 18.18C78.2983 18.532 78.9596 18.708 79.7063 18.708C80.3143 18.708 80.8743 18.5907 81.3863 18.356C81.8983 18.1107 82.3089 17.7693 82.6183 17.332C82.9276 16.884 83.0823 16.356 83.0823 15.748V14.836L84.0743 15.7H79.6583V13.86H85.2583V15.06C85.2583 15.9773 85.1036 16.788 84.7943 17.492C84.4849 18.196 84.0636 18.788 83.5303 19.268C83.0076 19.7373 82.4156 20.0947 81.7543 20.34C81.0929 20.5747 80.4103 20.692 79.7063 20.692Z" fill="white"/>
<path d="M56.9995 32.833C60.4031 32.833 63.668 34.1851 66.0747 36.5918C68.4812 38.9984 69.8334 42.2626 69.8335 45.666C69.8335 50.502 66.902 55.443 63.8901 59.2275C62.3932 61.1085 60.8952 62.6811 59.771 63.7832C59.2094 64.3338 58.7419 64.7664 58.4155 65.0605C58.2524 65.2076 58.1241 65.3202 58.0376 65.3955C57.9944 65.4331 57.9618 65.4617 57.9399 65.4805C57.9292 65.4897 57.9209 65.4965 57.9155 65.501C57.9131 65.503 57.9109 65.5048 57.9097 65.5059L57.9077 65.5068L57.8989 65.5146L57.8911 65.5215C57.4121 65.9625 56.5959 65.9624 56.105 65.5186L56.0991 65.5127L56.0923 65.5068H56.0913L56.0903 65.5059C56.0891 65.5048 56.087 65.5032 56.0845 65.501C56.0792 65.4965 56.0709 65.4897 56.0601 65.4805C56.0382 65.4618 56.0056 65.4331 55.9624 65.3955C55.8759 65.3202 55.7476 65.2076 55.5845 65.0605C55.2581 64.7664 54.7907 64.3338 54.229 63.7832C53.1048 62.6811 51.6068 61.1085 50.1099 59.2275C47.098 55.443 44.1665 50.5021 44.1665 45.666C44.1666 42.2625 45.5187 38.9984 47.9253 36.5918C50.3319 34.1852 53.596 32.8331 56.9995 32.833ZM56.9995 39.333C55.3199 39.3331 53.7096 40.0008 52.522 41.1885C51.3343 42.3761 50.6666 43.9864 50.6665 45.666C50.6665 47.3457 51.3342 48.9568 52.522 50.1445C53.7096 51.3321 55.32 51.9999 56.9995 52C57.8312 52 58.655 51.8358 59.4233 51.5176C60.1917 51.1993 60.8899 50.7326 61.478 50.1445C62.0661 49.5564 62.5328 48.8582 62.8511 48.0898C63.1693 47.3215 63.3335 46.4977 63.3335 45.666C63.3335 44.8346 63.1692 44.0113 62.8511 43.2432C62.5328 42.4748 62.0661 41.7765 61.478 41.1885C60.8899 40.6004 60.1917 40.1337 59.4233 39.8154C58.655 39.4972 57.8312 39.333 56.9995 39.333Z" fill="#00885B" stroke="black"/>
</svg>
