<svg width="123" height="70" viewBox="0 0 123 70" fill="none" xmlns="http://www.w3.org/2000/svg">
<rect x="0.7" y="0.7" width="121.6" height="27.6" rx="3.3" fill="#F2711D"/>
<rect x="0.7" y="0.7" width="121.6" height="27.6" rx="3.3" stroke="black" stroke-width="1.4"/>
<circle cx="14" cy="14.5" r="4.5" fill="#43F56A" stroke="black"/>
<path d="M29.192 20.5V15.22L25.176 8.58H27.656L30.728 13.764H29.848L32.904 8.58H35.384L31.384 15.204V20.5H29.192ZM34.6135 20.5L38.7255 8.58H41.5415L45.6535 20.5H43.2855L42.4375 17.94H37.8295L36.9655 20.5H34.6135ZM38.4535 16.02H41.8135L39.8295 10.084H40.4375L38.4535 16.02ZM46.9801 20.5V8.58H52.0041C52.7935 8.58 53.4655 8.71867 54.0201 8.996C54.5855 9.26267 55.0175 9.64667 55.3161 10.148C55.6255 10.6387 55.7801 11.236 55.7801 11.94C55.7801 12.484 55.6308 12.996 55.3321 13.476C55.0441 13.9453 54.5801 14.3347 53.9401 14.644V13.636C54.5268 13.86 54.9908 14.1373 55.3321 14.468C55.6735 14.7987 55.9135 15.1667 56.0521 15.572C56.1908 15.9773 56.2601 16.404 56.2601 16.852C56.2601 17.9933 55.8815 18.8893 55.1241 19.54C54.3775 20.18 53.3375 20.5 52.0041 20.5H46.9801ZM49.1561 18.58H52.2281C52.7935 18.58 53.2415 18.4253 53.5721 18.116C53.9135 17.796 54.0841 17.3747 54.0841 16.852C54.0841 16.3293 53.9135 15.908 53.5721 15.588C53.2415 15.268 52.7935 15.108 52.2281 15.108H49.1561V18.58ZM49.1561 13.204H52.1161C52.5641 13.204 52.9215 13.076 53.1881 12.82C53.4548 12.5533 53.5881 12.212 53.5881 11.796C53.5881 11.38 53.4548 11.0493 53.1881 10.804C52.9215 10.5587 52.5641 10.436 52.1161 10.436H49.1561V13.204ZM57.0666 20.5L61.1786 8.58H63.9946L68.1066 20.5H65.7386L64.8906 17.94H60.2826L59.4186 20.5H57.0666ZM60.9066 16.02H64.2666L62.2826 10.084H62.8906L60.9066 16.02ZM74.389 20.5V10.5H71.301V8.58H79.621V10.5H76.581V20.5H74.389ZM80.9489 20.5V8.58H88.8689V10.5H83.1249V13.556H88.5489V15.476H83.1249V18.58H88.8689V20.5H80.9489ZM96.0645 20.692C95.2112 20.692 94.4218 20.5373 93.6965 20.228C92.9818 19.9187 92.3525 19.4867 91.8085 18.932C91.2752 18.3773 90.8592 17.7267 90.5605 16.98C90.2618 16.2333 90.1125 15.4173 90.1125 14.532C90.1125 13.6467 90.2565 12.8307 90.5445 12.084C90.8432 11.3267 91.2592 10.676 91.7925 10.132C92.3365 9.57733 92.9712 9.15067 93.6965 8.852C94.4218 8.54267 95.2112 8.388 96.0645 8.388C96.9178 8.388 97.6805 8.532 98.3525 8.82C99.0352 9.108 99.6112 9.492 100.081 9.972C100.55 10.4413 100.886 10.9587 101.089 11.524L99.1365 12.436C98.9125 11.8387 98.5338 11.348 98.0005 10.964C97.4672 10.5693 96.8218 10.372 96.0645 10.372C95.3178 10.372 94.6565 10.548 94.0805 10.9C93.5152 11.252 93.0725 11.7373 92.7525 12.356C92.4432 12.9747 92.2885 13.7 92.2885 14.532C92.2885 15.364 92.4432 16.0947 92.7525 16.724C93.0725 17.3427 93.5152 17.828 94.0805 18.18C94.6565 18.532 95.3178 18.708 96.0645 18.708C96.8218 18.708 97.4672 18.516 98.0005 18.132C98.5338 17.7373 98.9125 17.2413 99.1365 16.644L101.089 17.556C100.886 18.1213 100.55 18.644 100.081 19.124C99.6112 19.5933 99.0352 19.972 98.3525 20.26C97.6805 20.548 96.9178 20.692 96.0645 20.692ZM102.855 20.5V8.58H105.031V13.78H110.103V8.58H112.295V20.5H110.103V15.7H105.031V20.5H102.855Z" fill="#111111"/>
<path d="M60.9998 33.833C64.4034 33.833 67.6682 35.1851 70.075 37.5918C72.4815 39.9984 73.8337 43.2626 73.8337 46.666C73.8337 51.502 70.9022 56.443 67.8904 60.2275C66.3934 62.1085 64.8955 63.6811 63.7712 64.7832C63.2096 65.3338 62.7421 65.7664 62.4158 66.0605C62.2526 66.2076 62.1244 66.3202 62.0378 66.3955C61.9947 66.4331 61.9621 66.4617 61.9402 66.4805C61.9294 66.4897 61.9211 66.4965 61.9158 66.501C61.9133 66.503 61.9111 66.5048 61.9099 66.5059L61.908 66.5068L61.8992 66.5146L61.8914 66.5215C61.4124 66.9625 60.5962 66.9624 60.1052 66.5186L60.0994 66.5127L60.0925 66.5068H60.0916L60.0906 66.5059C60.0893 66.5048 60.0873 66.5032 60.0847 66.501C60.0794 66.4965 60.0711 66.4897 60.0603 66.4805C60.0384 66.4618 60.0058 66.4331 59.9626 66.3955C59.8761 66.3202 59.7479 66.2076 59.5847 66.0605C59.2584 65.7664 58.7909 65.3338 58.2292 64.7832C57.105 63.6811 55.607 62.1085 54.1101 60.2275C51.0982 56.443 48.1667 51.5021 48.1667 46.666C48.1668 43.2625 49.5189 39.9984 51.9255 37.5918C54.3322 35.1852 57.5963 33.8331 60.9998 33.833ZM60.9998 40.333C59.3202 40.3331 57.7099 41.0008 56.5222 42.1885C55.3346 43.3761 54.6668 44.9864 54.6667 46.666C54.6667 48.3457 55.3345 49.9568 56.5222 51.1445C57.7099 52.3321 59.3202 52.9999 60.9998 53C61.8314 53 62.6552 52.8358 63.4236 52.5176C64.192 52.1993 64.8902 51.7326 65.4783 51.1445C66.0664 50.5564 66.533 49.8582 66.8513 49.0898C67.1696 48.3215 67.3337 47.4977 67.3337 46.666C67.3337 45.8346 67.1694 45.0113 66.8513 44.2432C66.5331 43.4748 66.0663 42.7765 65.4783 42.1885C64.8902 41.6004 64.192 41.1337 63.4236 40.8154C62.6552 40.4972 61.8315 40.333 60.9998 40.333Z" fill="#F2711D" stroke="black"/>
</svg>
